<?xml version="1.0" encoding="UTF-8"?> <svg xmlns="http://www.w3.org/2000/svg" xmlns:xlink="http://www.w3.org/1999/xlink" id="Layer_2" data-name="Layer 2" viewBox="0 0 800 400"><defs><style>.cls-1,.cls-14,.cls-7{fill:none;}.cls-2{clip-path:url(#clip-path);}.cls-3{clip-path:url(#clip-path-2);}.cls-13,.cls-4{fill:#fff;}.cls-13,.cls-14,.cls-5,.cls-6,.cls-7,.cls-8,.cls-9{stroke:#000;}.cls-13,.cls-5,.cls-6,.cls-7,.cls-8,.cls-9{stroke-width:6px;}.cls-5{fill:url(#New_Pattern_Swatch_1);}.cls-6{fill:url(#New_Pattern_Swatch_5-25);}.cls-8{fill:url(#New_Pattern_Swatch_2);}.cls-9{fill:url(#New_Pattern_Swatch_5-25-3);}.cls-10{fill:url(#New_Pattern_Swatch_2-5);}.cls-11{fill:url(#New_Pattern_Swatch_1-5);}.cls-12{fill:url(#New_Pattern_Swatch_5-25-5);}.cls-14{stroke-width:4px;}</style><clipPath id="clip-path"><rect class="cls-1" width="4" height="4"></rect></clipPath><clipPath id="clip-path-2"><rect class="cls-1" width="3" height="3"></rect></clipPath><pattern id="New_Pattern_Swatch_1" data-name="New Pattern Swatch 1" width="4" height="4" patternTransform="translate(0.79 -7.7)" patternUnits="userSpaceOnUse" viewBox="0 0 4 4"><rect class="cls-1" width="4" height="4"></rect><g class="cls-2"><path d="M4,.5H4A.5.5,0,0,0,4.5,0h0A.5.5,0,0,0,4-.5H4a.5.5,0,0,0-.5.5h0A.5.5,0,0,0,4,.5Z"></path><path d="M2,2.5H2A.5.5,0,0,0,2.5,2h0A.5.5,0,0,0,2,1.5H2a.5.5,0,0,0-.5.5h0A.5.5,0,0,0,2,2.5Z"></path><path d="M0,4.5H0A.5.5,0,0,0,.5,4h0A.5.5,0,0,0,0,3.5H0A.5.5,0,0,0-.5,4h0A.5.5,0,0,0,0,4.5Z"></path><path d="M0,.5H0A.5.5,0,0,0,.5,0h0A.5.5,0,0,0,0-.5H0A.5.5,0,0,0-.5,0h0A.5.5,0,0,0,0,.5Z"></path><path d="M4,4.5H4A.5.5,0,0,0,4.5,4h0A.5.5,0,0,0,4,3.5H4a.5.5,0,0,0-.5.5h0A.5.5,0,0,0,4,4.5Z"></path></g></pattern><pattern id="New_Pattern_Swatch_5-25" data-name="New Pattern Swatch 5-25" width="2" height="2" patternTransform="translate(-0.26 -5.39)" patternUnits="userSpaceOnUse" viewBox="0 0 2 2"><rect class="cls-1" width="2" height="2"></rect><rect class="cls-1" width="2" height="2"></rect><path d="M2,.5H2A.5.5,0,0,0,2.5,0h0A.5.5,0,0,0,2-.5H2a.5.5,0,0,0-.5.5h0A.5.5,0,0,0,2,.5Z"></path><path d="M2,.5H2A.5.5,0,0,0,2.5,0h0A.5.5,0,0,0,2-.5H2a.5.5,0,0,0-.5.5h0A.5.5,0,0,0,2,.5Z"></path><path d="M0,.5H0A.5.5,0,0,0,.5,0h0A.5.5,0,0,0,0-.5H0A.5.5,0,0,0-.5,0h0A.5.5,0,0,0,0,.5Z"></path><path d="M0,.5H0A.5.5,0,0,0,.5,0h0A.5.5,0,0,0,0-.5H0A.5.5,0,0,0-.5,0h0A.5.5,0,0,0,0,.5Z"></path><path d="M2,2.5H2A.5.5,0,0,0,2.5,2h0A.5.5,0,0,0,2,1.5H2a.5.5,0,0,0-.5.5h0A.5.5,0,0,0,2,2.5Z"></path><path d="M2,.5H2A.5.5,0,0,0,2.5,0h0A.5.5,0,0,0,2-.5H2a.5.5,0,0,0-.5.5h0A.5.5,0,0,0,2,.5Z"></path><path d="M1,1.5H1A.5.5,0,0,0,1.5,1h0A.5.5,0,0,0,1,.5H1A.5.5,0,0,0,.5,1h0A.5.5,0,0,0,1,1.5Z"></path><path d="M2,2.5H2A.5.5,0,0,0,2.5,2h0A.5.5,0,0,0,2,1.5H2a.5.5,0,0,0-.5.5h0A.5.5,0,0,0,2,2.5Z"></path><path d="M0,2.5H0A.5.5,0,0,0,.5,2h0A.5.5,0,0,0,0,1.5H0A.5.5,0,0,0-.5,2h0A.5.5,0,0,0,0,2.5Z"></path><path d="M0,.5H0A.5.5,0,0,0,.5,0h0A.5.5,0,0,0,0-.5H0A.5.5,0,0,0-.5,0h0A.5.5,0,0,0,0,.5Z"></path><path d="M2,.5H2A.5.5,0,0,0,2.5,0h0A.5.5,0,0,0,2-.5H2a.5.5,0,0,0-.5.5h0A.5.5,0,0,0,2,.5Z"></path><path d="M0,2.5H0A.5.5,0,0,0,.5,2h0A.5.5,0,0,0,0,1.5H0A.5.5,0,0,0-.5,2h0A.5.5,0,0,0,0,2.5Z"></path><path d="M0,.5H0A.5.5,0,0,0,.5,0h0A.5.5,0,0,0,0-.5H0A.5.5,0,0,0-.5,0h0A.5.5,0,0,0,0,.5Z"></path><path d="M2,2.5H2A.5.5,0,0,0,2.5,2h0A.5.5,0,0,0,2,1.5H2a.5.5,0,0,0-.5.5h0A.5.5,0,0,0,2,2.5Z"></path><path d="M0,2.5H0A.5.5,0,0,0,.5,2h0A.5.5,0,0,0,0,1.5H0A.5.5,0,0,0-.5,2h0A.5.5,0,0,0,0,2.5Z"></path><path d="M2,2.5H2A.5.5,0,0,0,2.5,2h0A.5.5,0,0,0,2,1.5H2a.5.5,0,0,0-.5.5h0A.5.5,0,0,0,2,2.5Z"></path><path d="M0,2.5H0A.5.5,0,0,0,.5,2h0A.5.5,0,0,0,0,1.5H0A.5.5,0,0,0-.5,2h0A.5.5,0,0,0,0,2.5Z"></path></pattern><pattern id="New_Pattern_Swatch_2" data-name="New Pattern Swatch 2" width="3" height="3" patternTransform="translate(-1.21 -8.7)" patternUnits="userSpaceOnUse" viewBox="0 0 3 3"><rect class="cls-1" width="3" height="3"></rect><g class="cls-3"><path d="M3,.5H3A.5.5,0,0,0,3.5,0h0A.5.5,0,0,0,3-.5H3a.5.5,0,0,0-.5.5h0A.5.5,0,0,0,3,.5Z"></path><path d="M1.5,2h0A.5.5,0,0,0,2,1.5H2A.5.5,0,0,0,1.5,1h0a.5.5,0,0,0-.5.5H1A.5.5,0,0,0,1.5,2Z"></path><path d="M0,.5H0A.5.5,0,0,0,.5,0h0A.5.5,0,0,0,0-.5H0A.5.5,0,0,0-.5,0h0A.5.5,0,0,0,0,.5Z"></path><path d="M3,2.5H3a.5.5,0,0,1,.5.5h0a.5.5,0,0,1-.5.5H3A.5.5,0,0,1,2.5,3h0A.5.5,0,0,1,3,2.5Z"></path><path d="M0,2.5H0A.5.5,0,0,1,.5,3h0a.5.5,0,0,1-.5.5H0A.5.5,0,0,1-.5,3h0A.5.5,0,0,1,0,2.5Z"></path></g></pattern><pattern id="New_Pattern_Swatch_5-25-3" data-name="New Pattern Swatch 5-25" width="2" height="2" patternTransform="translate(0.79 -3.7)" patternUnits="userSpaceOnUse" viewBox="0 0 2 2"><rect class="cls-1" width="2" height="2"></rect><rect class="cls-1" width="2" height="2"></rect><path d="M2,.5H2A.5.5,0,0,0,2.5,0h0A.5.5,0,0,0,2-.5H2a.5.5,0,0,0-.5.5h0A.5.5,0,0,0,2,.5Z"></path><path d="M2,.5H2A.5.5,0,0,0,2.5,0h0A.5.5,0,0,0,2-.5H2a.5.5,0,0,0-.5.5h0A.5.5,0,0,0,2,.5Z"></path><path d="M0,.5H0A.5.5,0,0,0,.5,0h0A.5.5,0,0,0,0-.5H0A.5.5,0,0,0-.5,0h0A.5.5,0,0,0,0,.5Z"></path><path d="M0,.5H0A.5.5,0,0,0,.5,0h0A.5.5,0,0,0,0-.5H0A.5.5,0,0,0-.5,0h0A.5.5,0,0,0,0,.5Z"></path><path d="M2,2.5H2A.5.5,0,0,0,2.5,2h0A.5.5,0,0,0,2,1.5H2a.5.5,0,0,0-.5.5h0A.5.5,0,0,0,2,2.5Z"></path><path d="M2,.5H2A.5.5,0,0,0,2.5,0h0A.5.5,0,0,0,2-.5H2a.5.5,0,0,0-.5.5h0A.5.5,0,0,0,2,.5Z"></path><path d="M1,1.5H1A.5.5,0,0,0,1.5,1h0A.5.5,0,0,0,1,.5H1A.5.5,0,0,0,.5,1h0A.5.5,0,0,0,1,1.5Z"></path><path d="M2,2.5H2A.5.5,0,0,0,2.5,2h0A.5.5,0,0,0,2,1.5H2a.5.5,0,0,0-.5.5h0A.5.5,0,0,0,2,2.5Z"></path><path d="M0,2.5H0A.5.5,0,0,0,.5,2h0A.5.5,0,0,0,0,1.5H0A.5.5,0,0,0-.5,2h0A.5.5,0,0,0,0,2.5Z"></path><path d="M0,.5H0A.5.5,0,0,0,.5,0h0A.5.5,0,0,0,0-.5H0A.5.5,0,0,0-.5,0h0A.5.5,0,0,0,0,.5Z"></path><path d="M2,.5H2A.5.5,0,0,0,2.5,0h0A.5.5,0,0,0,2-.5H2a.5.5,0,0,0-.5.5h0A.5.5,0,0,0,2,.5Z"></path><path d="M0,2.5H0A.5.5,0,0,0,.5,2h0A.5.5,0,0,0,0,1.5H0A.5.5,0,0,0-.5,2h0A.5.5,0,0,0,0,2.5Z"></path><path d="M0,.5H0A.5.5,0,0,0,.5,0h0A.5.5,0,0,0,0-.5H0A.5.5,0,0,0-.5,0h0A.5.5,0,0,0,0,.5Z"></path><path d="M2,2.5H2A.5.5,0,0,0,2.5,2h0A.5.5,0,0,0,2,1.5H2a.5.5,0,0,0-.5.5h0A.5.5,0,0,0,2,2.5Z"></path><path d="M0,2.5H0A.5.5,0,0,0,.5,2h0A.5.5,0,0,0,0,1.5H0A.5.5,0,0,0-.5,2h0A.5.5,0,0,0,0,2.5Z"></path><path d="M2,2.5H2A.5.5,0,0,0,2.5,2h0A.5.5,0,0,0,2,1.5H2a.5.5,0,0,0-.5.5h0A.5.5,0,0,0,2,2.5Z"></path><path d="M0,2.5H0A.5.5,0,0,0,.5,2h0A.5.5,0,0,0,0,1.5H0A.5.5,0,0,0-.5,2h0A.5.5,0,0,0,0,2.5Z"></path></pattern><pattern id="New_Pattern_Swatch_2-5" data-name="New Pattern Swatch 2" width="3" height="3" patternTransform="translate(-0.63 -9.25)" patternUnits="userSpaceOnUse" viewBox="0 0 3 3"><rect class="cls-1" width="3" height="3"></rect><g class="cls-3"><path d="M3,.5H3A.5.5,0,0,0,3.5,0h0A.5.5,0,0,0,3-.5H3a.5.5,0,0,0-.5.5h0A.5.5,0,0,0,3,.5Z"></path><path d="M1.5,2h0A.5.5,0,0,0,2,1.5H2A.5.5,0,0,0,1.5,1h0a.5.5,0,0,0-.5.5H1A.5.5,0,0,0,1.5,2Z"></path><path d="M0,.5H0A.5.5,0,0,0,.5,0h0A.5.5,0,0,0,0-.5H0A.5.5,0,0,0-.5,0h0A.5.5,0,0,0,0,.5Z"></path><path d="M3,2.5H3a.5.5,0,0,1,.5.5h0a.5.5,0,0,1-.5.5H3A.5.5,0,0,1,2.5,3h0A.5.5,0,0,1,3,2.5Z"></path><path d="M0,2.5H0A.5.5,0,0,1,.5,3h0a.5.5,0,0,1-.5.5H0A.5.5,0,0,1-.5,3h0A.5.5,0,0,1,0,2.5Z"></path></g></pattern><pattern id="New_Pattern_Swatch_1-5" data-name="New Pattern Swatch 1" width="4" height="4" patternTransform="translate(-0.63 -7.25)" patternUnits="userSpaceOnUse" viewBox="0 0 4 4"><rect class="cls-1" width="4" height="4"></rect><g class="cls-2"><path d="M4,.5H4A.5.5,0,0,0,4.5,0h0A.5.5,0,0,0,4-.5H4a.5.5,0,0,0-.5.5h0A.5.5,0,0,0,4,.5Z"></path><path d="M2,2.5H2A.5.5,0,0,0,2.5,2h0A.5.5,0,0,0,2,1.5H2a.5.5,0,0,0-.5.5h0A.5.5,0,0,0,2,2.5Z"></path><path d="M0,4.5H0A.5.5,0,0,0,.5,4h0A.5.5,0,0,0,0,3.5H0A.5.5,0,0,0-.5,4h0A.5.5,0,0,0,0,4.5Z"></path><path d="M0,.5H0A.5.5,0,0,0,.5,0h0A.5.5,0,0,0,0-.5H0A.5.5,0,0,0-.5,0h0A.5.5,0,0,0,0,.5Z"></path><path d="M4,4.5H4A.5.5,0,0,0,4.5,4h0A.5.5,0,0,0,4,3.5H4a.5.5,0,0,0-.5.5h0A.5.5,0,0,0,4,4.5Z"></path></g></pattern><pattern id="New_Pattern_Swatch_5-25-5" data-name="New Pattern Swatch 5-25" width="2" height="2" patternTransform="translate(1.37 -5.25)" patternUnits="userSpaceOnUse" viewBox="0 0 2 2"><rect class="cls-1" width="2" height="2"></rect><rect class="cls-1" width="2" height="2"></rect><path d="M2,.5H2A.5.5,0,0,0,2.5,0h0A.5.5,0,0,0,2-.5H2a.5.5,0,0,0-.5.5h0A.5.5,0,0,0,2,.5Z"></path><path d="M2,.5H2A.5.5,0,0,0,2.5,0h0A.5.5,0,0,0,2-.5H2a.5.5,0,0,0-.5.5h0A.5.5,0,0,0,2,.5Z"></path><path d="M0,.5H0A.5.5,0,0,0,.5,0h0A.5.5,0,0,0,0-.5H0A.5.5,0,0,0-.5,0h0A.5.5,0,0,0,0,.5Z"></path><path d="M0,.5H0A.5.5,0,0,0,.5,0h0A.5.5,0,0,0,0-.5H0A.5.5,0,0,0-.5,0h0A.5.5,0,0,0,0,.5Z"></path><path d="M2,2.5H2A.5.5,0,0,0,2.5,2h0A.5.5,0,0,0,2,1.5H2a.5.5,0,0,0-.5.5h0A.5.5,0,0,0,2,2.5Z"></path><path d="M2,.5H2A.5.5,0,0,0,2.5,0h0A.5.5,0,0,0,2-.5H2a.5.5,0,0,0-.5.5h0A.5.5,0,0,0,2,.5Z"></path><path d="M1,1.5H1A.5.5,0,0,0,1.5,1h0A.5.5,0,0,0,1,.5H1A.5.5,0,0,0,.5,1h0A.5.5,0,0,0,1,1.5Z"></path><path d="M2,2.5H2A.5.5,0,0,0,2.5,2h0A.5.5,0,0,0,2,1.5H2a.5.5,0,0,0-.5.5h0A.5.5,0,0,0,2,2.5Z"></path><path d="M0,2.5H0A.5.5,0,0,0,.5,2h0A.5.5,0,0,0,0,1.5H0A.5.5,0,0,0-.5,2h0A.5.5,0,0,0,0,2.5Z"></path><path d="M0,.5H0A.5.5,0,0,0,.5,0h0A.5.5,0,0,0,0-.5H0A.5.5,0,0,0-.5,0h0A.5.5,0,0,0,0,.5Z"></path><path d="M2,.5H2A.5.5,0,0,0,2.5,0h0A.5.5,0,0,0,2-.5H2a.5.5,0,0,0-.5.5h0A.5.5,0,0,0,2,.5Z"></path><path d="M0,2.5H0A.5.5,0,0,0,.5,2h0A.5.5,0,0,0,0,1.5H0A.5.5,0,0,0-.5,2h0A.5.5,0,0,0,0,2.5Z"></path><path d="M0,.5H0A.5.5,0,0,0,.5,0h0A.5.5,0,0,0,0-.5H0A.5.5,0,0,0-.5,0h0A.5.5,0,0,0,0,.5Z"></path><path d="M2,2.5H2A.5.5,0,0,0,2.5,2h0A.5.5,0,0,0,2,1.5H2a.5.5,0,0,0-.5.5h0A.5.5,0,0,0,2,2.5Z"></path><path d="M0,2.5H0A.5.5,0,0,0,.5,2h0A.5.5,0,0,0,0,1.5H0A.5.5,0,0,0-.5,2h0A.5.5,0,0,0,0,2.5Z"></path><path d="M2,2.5H2A.5.5,0,0,0,2.5,2h0A.5.5,0,0,0,2,1.5H2a.5.5,0,0,0-.5.5h0A.5.5,0,0,0,2,2.5Z"></path><path d="M0,2.5H0A.5.5,0,0,0,.5,2h0A.5.5,0,0,0,0,1.5H0A.5.5,0,0,0-.5,2h0A.5.5,0,0,0,0,2.5Z"></path></pattern></defs><rect class="cls-4" width="800" height="400"></rect><circle class="cls-5" cx="360.87" cy="200" r="26.53"></circle><path class="cls-6" d="M334.34,120.39v53.07H307.8a26.54,26.54,0,0,1,0-53.07Z"></path><path class="cls-7" d="M334.34,120.39v53.07h26.53a26.54,26.54,0,1,0,0-53.07Z"></path><path class="cls-7" d="M334.34,173.47v53.06H307.8a26.53,26.53,0,0,1,0-53.06Z"></path><path class="cls-8" d="M334.34,226.54v53.07H307.8a26.54,26.54,0,0,1,0-53.07Z"></path><circle class="cls-7" cx="235.76" cy="199.69" r="7.96"></circle><path class="cls-9" d="M137.18,226.54H110.65a26.54,26.54,0,1,1,0-53.07h26.53a26.54,26.54,0,0,0,0,53.07Z"></path><path class="cls-8" d="M190.25,200a26.53,26.53,0,0,1-26.53,26.54H137.18a26.54,26.54,0,1,0,0-53.07h26.54A26.53,26.53,0,0,1,190.25,200Z"></path><path class="cls-7" d="M177,154.89H97.38a8,8,0,0,1,0-15.92H177a8,8,0,0,1,0,15.92Z"></path><line class="cls-7" x1="163.71" y1="261.04" x2="110.64" y2="261.04"></line><path class="cls-7" d="M90.08,245.11a22,22,0,0,1-.66-5.3V220.38a39.12,39.12,0,0,0,15.92,5.79v13.64a5.17,5.17,0,0,0,.61,2.45,5.29,5.29,0,0,0,4.69,2.85h53.07a5.32,5.32,0,0,0,5.31-5.3V226.17a39.12,39.12,0,0,0,15.92-5.79v19.43a22,22,0,0,1-.66,5.3"></path><path class="cls-7" d="M190.25,261H84.11a8,8,0,0,1,0-15.92H190.25a8,8,0,1,1,0,15.92Z"></path><circle class="cls-5" cx="137.18" cy="200" r="26.53"></circle><path class="cls-10" d="M521.45,300.49l-5.25,30.58-33.27-4.67a110.07,110.07,0,0,1-18.4-9.73c-6.53-4.57-12.73-16.52-16.42-24.75,3.72-16.36,18.09-37.77,22.42-44l-1.44,25.57-.92,16.32,17.18-.44,11.51-.3,5.26-2.9,3.3-1.81,4.34,14.69,4.93,2.09Z"></path><path class="cls-11" d="M502.17,74S487.6,88.77,480.3,83.88c0,0-13.9,22.15-12.16,53.89h0a69.42,69.42,0,0,1-8.24-4.87h0C460,105.79,466.58,87,476.4,74a14.55,14.55,0,0,1-.82-4.37,11.49,11.49,0,0,1,.89-4.59s3.54,9.82,24.3,4.84Z"></path><path class="cls-12" d="M641.5,130.59s-5.55,9.66-5.4,26.14c-.22.29-.46.6-.73.92-9-12.52-28.08-12.08-38.42-10.78C619.41,142.57,633.26,136.05,641.5,130.59Z"></path><path class="cls-12" d="M500.71,148.12c-29-2.78-36.21,11.15-37.78,15.67,4.7-17.32-2.05-29.27-3-30.89C467.49,138.17,480.21,144.37,500.71,148.12Z"></path><path class="cls-10" d="M635.37,157.65c-7,8.68-29.24,27.5-86.37,29-48.43,1.25-74.31-12.61-86.27-22.11l.18-.66a.19.19,0,0,1,0-.07c1.57-4.52,8.82-18.45,37.78-15.67h.06c13.29,2.44,29.85,3.85,50.41,3.32a296.35,296.35,0,0,0,38.76-3.35l.09,0q3.56-.56,6.85-1.2H597C607.29,145.57,626.38,145.13,635.37,157.65Z"></path><path class="cls-7" d="M509,51c13.31-4.65,27.07-5.82,38.14-6.11a119.83,119.83,0,0,1,26,2.17"></path><path class="cls-7" d="M459.88,132.89h0C460,105.79,466.58,87,476.4,74"></path><path class="cls-4" d="M506.77,183.36h0a125.46,125.46,0,0,1-23.1-6.86l13.82-10.83Z"></path><path class="cls-4" d="M614.36,173.27a114.78,114.78,0,0,1-23.55,8.26l9.56-19.19Z"></path><path class="cls-7" d="M459.77,132.71s8.44,12.75,3,31.81c12,9.5,37.84,23.36,86.27,22.11,59.24-1.53,80.93-21.71,87.1-29.9-.15-16.48,5.4-26.14,5.4-26.14-1.7-31.27-12.86-51.52-27.6-64.45"></path><path class="cls-7" d="M459.88,132.88h0c12.54,8.69,39,19.9,91.29,18.55,51.15-1.33,77.51-12.38,90.32-20.86"></path><path class="cls-7" d="M570.34,56.35s-.78-5.55,2.7-9.22c3.67-3.86,16.7-5,27.66.66,8,4.17,18.92,14.93,10,24.31-6.86,7.22-16.09,2.83-18.18,1.53"></path><path class="cls-13" d="M602.63,36,584.79,48a6.25,6.25,0,0,0-2.41,7.28c.94,2.63,3,5.68,7.65,7.67a21,21,0,0,0,12,1.54,5.07,5.07,0,0,0,4.08-5.78Z"></path><path class="cls-7" d="M479.81,80.15s-4.08-4.69-4.23-10.48c-.14-5.41,4.29-11.49,11-15.42,10.69-6.25,22.78-4.73,26.78-.92,3,2.86,2.78,7.51-3.64,13.58"></path><path class="cls-13" d="M483.08,39.09l-2.31,24.1a4.1,4.1,0,0,0,3.59,4.5c2.67.28,6.72-.09,12.18-2.76s7.72-5.65,8.48-7.86a4.1,4.1,0,0,0-1.67-4.75Z"></path><path class="cls-7" d="M462.7,164.5c1-3.48,7.3-19.35,38.07-16.37"></path><path class="cls-7" d="M589.94,148.1s32.77-8.1,45.44,9.56"></path><polyline class="cls-7" points="483.67 176.51 497.49 165.68 506.77 183.37 506.77 183.38"></polyline><polyline class="cls-7" points="590.81 181.53 600.37 162.34 614.36 173.27"></polyline><path class="cls-7" d="M502.14,201.15a53.08,53.08,0,0,1,.67,8.09c0,1.77,0,3.75-.17,5.88a55.26,55.26,0,0,1-1,7.06c0,.22-.08.44-.13.66"></path><path class="cls-7" d="M496.19,217.27s1.24,1,3.09,2.69c.71.65,1.52,1.39,2.38,2.22l1,1h0c1.5,1.49,3.13,3.18,4.71,5a48.29,48.29,0,0,1,6.37,9l1.35,7.26.26,1.42"></path><path class="cls-10" d="M515.12,244.36h0l-1.14.74c-3.69-1.7-7.09-3-9.61-3.89l-3.6-3.81-6.43-17.52,4.61-.23.33.3c.71.65,1.52,1.39,2.38,2.22l12.11,14.93Z"></path><path class="cls-7" d="M500,239.8s25.66,7.17,35.4,21.2"></path><path class="cls-7" d="M485.61,251.23s13.71,25.84,17.46,37.72"></path><path class="cls-11" d="M502.12,286.21l-5.26,2.9-11.51.3L482.93,253l4.34,1.43C490.69,261,498.52,276.45,502.12,286.21Z"></path><polyline class="cls-7" points="535.11 250.48 535.56 267.82 496.86 289.11 468.18 289.85 471.42 232.22 470.93 213.27"></polyline><path class="cls-7" d="M530.1,270.82l5.73,7.63s-.12,12.87.45,17.29l.24,9.31-4.61.59a4.3,4.3,0,0,1-4.64-3l-4.2-13.26"></path><polygon class="cls-11" points="526.42 299.99 514.69 301.18 509.76 299.09 509.34 297.67 524.37 293.53 526.42 299.99"></polygon><polyline class="cls-7" points="504.69 281.92 509.76 299.09 514.7 301.18 526.42 299.99"></polyline><line class="cls-7" x1="530.78" y1="297.33" x2="536.28" y2="295.74"></line><polyline class="cls-7" points="536.06 293.25 556.03 330.04 558.23 340.08 545.7 347.31 539.55 341.26 521.14 296.85"></polyline><line class="cls-7" x1="556.03" y1="330.04" x2="546.79" y2="335.39"></line><path class="cls-7" d="M462.89,191.84c-10.06-14-.16-27.32-.16-27.32"></path><path class="cls-11" d="M473.81,213.27,470.7,245v.07l-2.35,1.07-6.12-18.71.21-11.38.46-24.25c-8.85-12.27-2.26-24.09-.54-26.76l3.91,4.87,1.91,13.42Z"></path><polyline class="cls-7" points="463.03 184.51 462.23 227.47 470.3 252.16"></polyline><polyline class="cls-7" points="517.71 185.16 528.19 197.15 537.92 215.18 542.33 223.35"></polyline><polygon class="cls-10" points="504.69 201.15 497.45 184.51 505.79 191.81 520.84 213.16 530.86 233.49 515.12 244.37 513.77 237.11 501.66 222.18 504.69 201.15"></polygon><polyline class="cls-7" points="513.98 245.11 534.62 231.58 542.33 223.35 579.33 183.87"></polyline><polyline class="cls-7" points="537.03 216.22 537.92 215.18 546.6 205.04 562.99 185.88"></polyline><polyline class="cls-7" points="548.16 207.05 546.6 205.04 532.14 186.44"></polyline><line class="cls-7" x1="504.67" y1="102.29" x2="516.91" y2="121.01"></line><line class="cls-7" x1="593.15" y1="98" x2="581.55" y2="116.64"></line><line class="cls-7" x1="604.63" y1="213.74" x2="602.96" y2="191.89"></line><path class="cls-7" d="M606.8,205.54s-10.43,39.75-11.69,42.77c0,0-10,19.22-11.9,22.27"></path><path class="cls-7" d="M610.06,267.09s14.93-14.18,18-24.93"></path><polyline class="cls-7" points="583.21 270.58 579.31 285.12 578.41 295.37 584.88 296.92"></polyline><polygon class="cls-11" points="596.43 299.06 593.98 304.05 588.26 304.2 584 301.16 585.49 297.07 584.88 296.92 578.41 295.37 579.31 285.11 587.43 291.72 587.43 291.73 586.77 293.53 596.43 299.06"></polygon><polyline class="cls-7" points="591.81 279.67 584 301.16 588.26 304.2 593.98 304.05 600.05 291.68"></polyline><path class="cls-7" d="M596.43,299.06l9.24-2.68s7.39-7.46,8.82-12.18c1-3.38,1.78-10.18,2.12-13.75"></path><path class="cls-7" d="M609,291.44s24.82-7,37.84-4.18"></path><path class="cls-7" d="M635.38,157.66l12,26.43s-1,51.83,1.41,57.53"></path><path class="cls-7" d="M638.56,210.11l14.18,43.65-1.23,34.12c-19.32-1.05-35.9-20.93-41.45-20.79s-31.13,3.6-31.13,3.6"></path><path class="cls-7" d="M527.39,253c5.53-3.5,20.35-12.9,28.11-18.21,9.66-6.61,52.21-58.55,52.21-58.55"></path><polyline class="cls-7" points="498.47 181.45 520.84 213.16 531.07 233.91"></polyline><path class="cls-7" d="M470.53,248c-4.33,6.19-18.7,27.6-22.42,44,3.69,8.23,9.89,20.18,16.42,24.75"></path><polygon class="cls-10" points="531.57 322.01 516.2 331.07 521.45 300.49 522.6 300.38 523.4 302.3 531.57 322.01"></polygon><path class="cls-7" d="M469.09,273.53S456.3,311,464.53,316.67a110.07,110.07,0,0,0,18.4,9.73l33.28,4.68,16.91-10"></path><line class="cls-7" x1="482.93" y1="326.4" x2="492.41" y2="296.88"></line><line class="cls-7" x1="521.45" y1="300.49" x2="516.2" y2="331.07"></line><path class="cls-10" d="M571.38,315l-22.28,2.32-13-24h0c-.32-5.51-.23-14.8-.23-14.8l-5.73-7.63,5.45-3,2.69.47a9.06,9.06,0,0,0,5.54,2.45l2.35,5.93.52.46,5.15,4.59,7.08.58H559l6.79-1.16,2.09-.36Z"></path><path class="cls-12" d="M646,287.09l-.87-.14q-.72-.1-1.47-.18l-.6-.06-.6,0c-1.32-.09-2.7-.12-4.11-.09l-.84,0h-.21l-1.07,0-1.08.07-.87.06-.22,0-1,.08-.18,0-1,.1c-4.22.44-8.44,1.16-12.09,1.89l-1.12.23-.57.12-1,.22-.51.11-1,.22c-1.27.29-2.41.57-3.36.8l-1,.25-.3.08-.53.14-.1,0a24.59,24.59,0,0,0,4.15-6.89c1-3.38,1.78-10.18,2.12-13.75C623.52,275.39,634.05,284.33,646,287.09Z"></path><path class="cls-10" d="M656,302.45l-7.2,14.8-26.86,4.27s-28.16,2-32.92,2.13c-6.66.17-17.64-8.7-17.64-8.7l-3.13-30.79-.34-3.37-2.09.36,5.56-5.21,2.11-6.8,8.11,1.19,1.6.24-3.89,14.54-.9,10.26,7.08,1.7L584,301.16l4.26,3,5.72-.15,2.45-5,9.24-2.68s2.35-2.38,4.67-5.29c5.16-1.37,24.33-6.07,35.69-4l.14,0a32,32,0,0,0,5.34.76Z"></path><path class="cls-7" d="M651.51,287.88,656,302.45l-7.2,14.8-26.86,4.27s-28.16,2-32.92,2.13c-6.66.17-17.64-8.7-17.64-8.7l-22.28,2.32"></path><line class="cls-7" x1="621.94" y1="321.52" x2="614.11" y2="290.15"></line><line class="cls-7" x1="571.38" y1="314.96" x2="568.25" y2="284.16"></line><line class="cls-7" x1="647.39" y1="184.09" x2="637.01" y2="192.54"></line><path d="M555.65,259.66a5.58,5.58,0,0,1-2.5-2.94,5.88,5.88,0,0,1-.14-3.55,5.73,5.73,0,0,1,2.08-3.14,4.4,4.4,0,0,1,3.95-.77c0,1.58,0,2.55,0,3.37a7.27,7.27,0,0,1-.23,2.1,8.76,8.76,0,0,1-.95,2.14A13.8,13.8,0,0,1,555.65,259.66Z"></path><path d="M560.58,260.14a5.59,5.59,0,0,1-.69-3.8,5.86,5.86,0,0,1,1.65-3.14,5.75,5.75,0,0,1,3.37-1.68,4.38,4.38,0,0,1,3.8,1.31c-.82,1.34-1.28,2.19-1.69,2.91a6.87,6.87,0,0,1-1.25,1.7,8,8,0,0,1-1.89,1.38A13.73,13.73,0,0,1,560.58,260.14Z"></path><path d="M564.61,263a5.58,5.58,0,0,1,1.3-3.63,5.91,5.91,0,0,1,3-1.9,5.75,5.75,0,0,1,3.76.23,4.39,4.39,0,0,1,2.64,3c-1.38.75-2.21,1.25-2.92,1.67a7.31,7.31,0,0,1-1.93.85,8.44,8.44,0,0,1-2.33.25A13.68,13.68,0,0,1,564.61,263Z"></path><path d="M566.66,267.53a5.63,5.63,0,0,1,3-2.5,5.93,5.93,0,0,1,3.54-.14,5.75,5.75,0,0,1,3.14,2.08,4.4,4.4,0,0,1,.77,3.95c-1.57,0-2.54,0-3.37,0a7.31,7.31,0,0,1-2.1-.23,8.39,8.39,0,0,1-2.14-.95A14.37,14.37,0,0,1,566.66,267.53Z"></path><path d="M566.18,272.46a5.61,5.61,0,0,1,3.8-.69,5.86,5.86,0,0,1,3.14,1.65,5.75,5.75,0,0,1,1.68,3.37,4.34,4.34,0,0,1-1.31,3.8c-1.34-.82-2.19-1.28-2.91-1.69a7.54,7.54,0,0,1-1.7-1.24,8.89,8.89,0,0,1-1.38-1.89A13.83,13.83,0,0,1,566.18,272.46Z"></path><path d="M563.3,276.49a5.61,5.61,0,0,1,3.64,1.31,5.88,5.88,0,0,1,1.9,3,5.81,5.81,0,0,1-.24,3.76,4.35,4.35,0,0,1-3,2.64c-.75-1.38-1.26-2.21-1.68-2.92a7.5,7.5,0,0,1-.85-1.93,8.4,8.4,0,0,1-.25-2.33A14.26,14.26,0,0,1,563.3,276.49Z"></path><path d="M558.79,278.54a5.63,5.63,0,0,1,2.5,2.95,5.85,5.85,0,0,1,.14,3.54,5.75,5.75,0,0,1-2.08,3.15,4.35,4.35,0,0,1-3.94.76c0-1.57,0-2.54,0-3.36a7.27,7.27,0,0,1,.23-2.1,8.6,8.6,0,0,1,1-2.14A14.09,14.09,0,0,1,558.79,278.54Z"></path><path d="M553.86,278.06a5.61,5.61,0,0,1,.69,3.8A5.89,5.89,0,0,1,552.9,285a5.81,5.81,0,0,1-3.37,1.68,4.41,4.41,0,0,1-3.8-1.31c.82-1.35,1.28-2.2,1.69-2.91a7.13,7.13,0,0,1,1.25-1.71,8.64,8.64,0,0,1,1.89-1.38A14.61,14.61,0,0,1,553.86,278.06Z"></path><path d="M549.83,275.19a5.6,5.6,0,0,1-1.3,3.63,5.91,5.91,0,0,1-3,1.9,5.81,5.81,0,0,1-3.76-.23,4.41,4.41,0,0,1-2.64-3c1.38-.75,2.21-1.26,2.92-1.67a7.35,7.35,0,0,1,1.93-.86,8.84,8.84,0,0,1,2.33-.25A13.77,13.77,0,0,1,549.83,275.19Z"></path><path d="M537.38,267.29c1.57,0,2.54,0,3.36,0a7.73,7.73,0,0,1,2.11.22,8.69,8.69,0,0,1,2.14.94,14.22,14.22,0,0,1,2.79,2.22,5.59,5.59,0,0,1-2.95,2.5,5.85,5.85,0,0,1-3.54.14,5.91,5.91,0,0,1-3.14-2.09A4.39,4.39,0,0,1,537.38,267.29Z"></path><path d="M548.26,265.75a5.6,5.6,0,0,1-3.8.68,5.91,5.91,0,0,1-3.14-1.64,5.75,5.75,0,0,1-1.68-3.38,4.36,4.36,0,0,1,1.31-3.8c1.34.82,2.19,1.29,2.91,1.69a7.64,7.64,0,0,1,1.7,1.25,8.89,8.89,0,0,1,1.38,1.89A13.66,13.66,0,0,1,548.26,265.75Z"></path><path d="M551.14,261.71a5.61,5.61,0,0,1-3.64-1.3,5.82,5.82,0,0,1-1.89-3,5.75,5.75,0,0,1,.23-3.76,4.39,4.39,0,0,1,3-2.64c.76,1.39,1.26,2.21,1.68,2.92a7.55,7.55,0,0,1,.85,1.94,8.32,8.32,0,0,1,.25,2.32A14.14,14.14,0,0,1,551.14,261.71Z"></path><path class="cls-14" d="M601.59,225.18a9.78,9.78,0,0,1-4,1.53A9.92,9.92,0,1,1,595.89,207l-.1-4.08a.39.39,0,0,1,.6-.34l7.77,5"></path><path class="cls-14" d="M604.35,210l-.63.44L597.4,215a.84.84,0,0,1-.85.07.82.82,0,0,1-.46-.73l0-1.54a4.1,4.1,0,0,0-3.39,6.23,4.09,4.09,0,0,0,5.62,1.34"></path><path class="cls-14" d="M604.46,211.48a8.9,8.9,0,0,0-.74-1"></path><path class="cls-14" d="M503.18,215.06l0,1.54a.82.82,0,0,0,.46.73.86.86,0,0,0,.86-.07l6.32-4.53"></path><path class="cls-14" d="M503,209.23l-.1-4.08a.39.39,0,0,1,.6-.34l8.72,5.63a.78.78,0,0,1,0,1.28l-1.42,1a9.91,9.91,0,0,1-3.46,15.43"></path><path class="cls-7" d="M646.44,182c5.56-3.92,7-8,10.63-25,4.32-20.17,17.76-27.18,32.07-34.6"></path><path class="cls-11" d="M673.6,153.32A83.69,83.69,0,0,0,670.08,170a60.83,60.83,0,0,1-22.7,40.67V184.08l-.94-2.08a15.93,15.93,0,0,0,6.23-8.09,6.38,6.38,0,0,0,7.19,5.73,4,4,0,0,0,1.7-.63c3.52-2.34,4.51-10.61,8.28-22.88A3.48,3.48,0,0,1,673.6,153.32Z"></path><path class="cls-7" d="M647.2,210.81A61,61,0,0,0,670.08,170c3.56-29.84,15.35-36.94,30.21-40.91"></path><path class="cls-7" d="M678.63,128.12l-4.85-9a3.84,3.84,0,0,1,3.23-5.64c14.79-.71,46.08-7.72,46.82-.49.69,6.77-19,27.15-27.59,35.75a4.06,4.06,0,0,1-6.48-1.05l-5.55-11"></path><path class="cls-11" d="M440.5,280.59s-3.35,26.65-2.22,29.2L428.7,330S425.42,291.08,440.5,280.59Z"></path><path class="cls-7" d="M429.48,333.32s-1.25-13.94-.58-22.6,5.26-19.43,8.54-29.85,8-49.75,12.25-57.84c2.71-5.19,8.75-6.59,12.74-6.94"></path><path class="cls-11" d="M686.79,326.92a21.25,21.25,0,0,1-1.51,7.86,38.61,38.61,0,0,1-23.47,22.35c-2.16.73-4.4,1.41-6.66,2-5.78,1.48-11.67,2.26-16.5,1.4-15.15-2.71-40-2.07-50.73,2.2s-107.2-3.44-122.27-3.08a169.45,169.45,0,0,1-29.78-2.3s-8.76-12.63-8.87-17.07l82.12,6.79,12,1.76,1.29-.66,8.42-4.33,3-10.5,5.69,7.94,6.15,6.05,12.53-7.23,2.35,1L559,348.81s16.38,2.66,25,0,50-4,55.58-4,39.24-3.17,44.56-14.78a11.64,11.64,0,0,1,2.64-3.62C686.79,326.59,686.79,326.75,686.79,326.92Z"></path><path class="cls-7" d="M647.22,213.93a42,42,0,0,1,9,4.44,14.6,14.6,0,0,1,5.76,6.78c3.34,8.06,10.63,25.93,12.23,32,1.7,6.5,9.41,50,12.24,66.06a21.17,21.17,0,0,1-1.19,11.52,38.61,38.61,0,0,1-23.47,22.35c-7.67,2.59-16.44,4.58-23.16,3.38-15.15-2.71-40-2.07-50.73,2.2s-107.2-3.44-122.27-3.08a169.45,169.45,0,0,1-29.78-2.3s-8.76-12.63-8.87-17.07,13.42-29.84,13.42-29.84"></path><polygon class="cls-11" points="542.33 223.35 534.62 231.58 531.07 233.91 525.39 222.39 537.92 215.18 542.33 223.35"></polygon><polygon class="cls-11" points="510.86 293.25 525.39 276.49 505.42 284.4 510.86 293.25"></polygon><polygon class="cls-11" points="539.13 307.68 536.28 314.33 548.26 337.83 545.7 347.31 539.55 341.26 523.4 302.3 531.91 305.64 539.13 307.68"></polygon><path class="cls-11" d="M558.23,232.52a27.5,27.5,0,0,1-2.73,2.24c-7.76,5.31-22.58,14.71-28.11,18.21A74.87,74.87,0,0,0,514,245.11l20.64-13.53,5.93-6.33,9.46,6.28Z"></path><polygon class="cls-11" points="575.31 218.34 562.99 235.97 575.31 238.06 587.35 238.06 599.57 226.71 595.12 248.31 583.2 270.57 571.38 267.82 568.71 260.69 562.99 256.05 555.54 256.05 549.1 258.33 544.13 263.3 542.58 270.09 535.55 267.82 535.28 247.96 558.23 232.52 575.31 218.34"></polygon><polygon class="cls-11" points="586.22 272.46 612.66 279.67 616.61 270.45 610.06 267.1 586.22 272.46"></polygon><path class="cls-11" d="M630.6,243.17s-4.32,20-5.15,21.62L646,256.36l-10.29-44.88,4.84-1.44-1.67-15.92,8.48-10v53.19l5.35,16.48-1.23,34.12s-31.15-8.87-40.08-22.13Z"></path><path class="cls-11" d="M632.68,135.6s-3.52-20.24-5.52-27.77-6.87-28.27-20.36-25.72C590,85.29,577.06,69.92,577.06,69.92l4.49-5.15a47.62,47.62,0,0,0,12.55,6.48c8.68,2.88,17.18,4.86,19.8-5.11,0,0,24.8,21.64,27.6,64.45Z"></path><polygon class="cls-11" points="673.32 114.81 688.13 119.96 677.72 126.43 673.32 114.81"></polygon><path class="cls-11" d="M699.27,126.43s18.63-1,22.28-13.45c0,0-9.48,24.43-28.43,36.91l-7.56-14.29,12.23-5.8Z"></path></svg> 